# xmcd
#
# Track frame offsets:
#	150
#	15984
#	36007
#	47421
#	67392
#	89795
#	106727
#	122191
#	139113
#	157085
#
# Disc length: 2728 seconds
#
# Revision: 0
# Processed by: cddbd v1.4PL0 Copyright (c) Steve Scherf et al.
# Submitted via: dBpowerAMP V4.0
#
DISCID=870aa60a
DTITLE=Rusty Schramm - Rusty Schramm
DYEAR=1900
DGENRE=Texas Country
TTITLE0=When You Get Tired Of Texas
TTITLE1=Friends
TTITLE2=The Panty Song
TTITLE3=Texas Coast
TTITLE4=Let It Go
TTITLE5=Punchin A Clock
TTITLE6=My Life Is (just a jerry springer show)
TTITLE7=The Ride
TTITLE8=Angelina
TTITLE9=College Daze
EXTD=
EXTT0=
EXTT1=
EXTT2=
EXTT3=
EXTT4=
EXTT5=
EXTT6=
EXTT7=
EXTT8=
EXTT9=
PLAYORDER=
